<svg width="648" height="449" viewBox="0 0 648 449" fill="none" xmlns="http://www.w3.org/2000/svg">
<path d="M160.676 334.892C160.676 334.892 159.856 319.206 168.479 312.126C177.106 305.041 179.978 313.643 179.978 313.643C179.978 313.643 182.654 292.827 196.208 291.817C209.762 290.806 215.713 305.041 215.713 305.041C215.713 305.041 230.738 289.472 233.374 307.066C236.006 324.66 165.192 344.508 148.354 349.06C131.513 353.608 160.676 334.892 160.676 334.892Z" fill="#FCAADC"/>
<path d="M176.461 409.193C196.222 409.85 229.867 401.298 268.855 376.956C302.348 356.044 308.376 342.088 308.376 342.088L272.061 359.853C272.061 359.853 299.297 338.143 303.304 323.342C307.31 308.542 246.55 367.382 213.313 386.826C191.949 399.327 176.461 409.193 176.461 409.193Z" fill="#FCAADC"/>
<path d="M361.246 392.584C379.016 382.344 403.643 369.381 407.811 363.32C414.092 354.186 425.047 333.777 433.981 326.294C459.833 304.634 461.052 332.8 461.052 332.8C461.052 332.8 464.373 322.191 472.361 311.569C466.87 303.046 457.805 297.508 446.806 297.325C421.058 296.897 408.496 335.665 408.496 335.665C408.496 335.665 407.899 305.952 382.046 327.612C373.113 335.095 350.568 356.897 359.38 390.451C359.684 391.603 359.849 391.333 361.246 392.584Z" fill="#FCAADC"/>
<path d="M523.647 360.131C540.185 331.458 525.021 301.695 499.273 301.271C473.525 300.842 460.963 339.61 460.963 339.61C460.963 339.61 460.366 309.897 434.513 331.557C425.58 339.041 414.628 359.449 408.344 368.583C401.57 378.436 320.121 414.128 320.121 414.128C320.121 414.128 484.139 428.629 523.647 360.131Z" fill="#FCAADC"/>
<path d="M295.957 192.916C295.36 189.898 290.996 187.038 290.217 186.614C289.437 186.19 287.793 186.979 286.791 189.046C284.563 193.648 264.02 201.26 259.683 204.337C255.349 207.413 253.486 228.624 264.722 223.644C286.771 213.874 291.249 211.03 295.957 206.977C302.123 201.672 297.56 201.031 295.957 192.916Z" fill="#C83F37"/>
<path d="M323.329 165.781C323.329 165.781 322.262 162.164 316.92 165.124C311.577 168.084 299.562 180.914 296.626 182.228C293.689 183.541 290.618 184.448 290.618 187.079C290.618 188.917 292.532 189.628 294.668 196.043C296.467 201.443 298.907 204.707 301.702 202.952C310.423 197.469 329.471 175.979 323.329 165.781Z" fill="#1D2436"/>
<path d="M302.099 254.758C302.099 254.758 283.807 272.356 279.402 279.266C274.998 286.175 272.592 279.76 267.786 292.095C262.98 304.43 253.499 332.884 249.493 333.378C245.487 333.873 239.479 330.418 238.68 340.779C237.88 351.139 252.699 367.914 258.707 370.878C264.714 373.838 271.123 367.918 273.128 355.088C275.13 342.259 284.745 326.855 289.149 317.975C293.554 309.095 293.064 306.351 296.493 303.611C303.294 298.169 315.241 288.703 332.143 270.552C347.763 253.772 321.725 229.593 302.099 254.758Z" fill="#273150"/>
<path d="M279.402 279.266C274.579 285.739 272.591 279.76 267.785 292.095C262.979 304.43 251.977 330.693 258.44 330.252C260.843 330.086 279.669 325.317 284.077 316.437C288.481 307.557 293.867 300.427 297.293 297.687C300.553 295.08 300.898 276.085 300.898 276.085C295.734 273.233 284.876 271.915 279.402 279.266Z" fill="#465788"/>
<path d="M373.797 267.093C373.855 270.764 362.724 276.177 346.294 268.406C329.865 260.64 337.341 236.132 353.77 243.898C370.199 251.669 373.709 261.393 373.797 267.093Z" fill="#F2A62F"/>
<path d="M368.998 263.268C367.756 276.809 348.07 272.776 328.535 270.053C308.998 267.33 297.006 266.947 298.248 253.411C299.49 239.874 316.338 231.102 335.876 233.825C355.411 236.544 370.244 249.727 368.998 263.268Z" fill="#273150"/>
<path d="M346.562 248.343C346.562 248.343 337.081 253.386 333.477 268.19C329.872 282.991 330.004 288.474 327.601 295.384C325.198 302.293 319.589 332.717 316.386 343.082C313.183 353.446 315.194 347.052 311.58 351.962C301.165 366.106 322.171 383.429 322.171 383.429C322.171 383.429 332.998 400.437 338.948 393.407C345.488 385.679 343.622 379.921 343.622 374.657C343.622 369.394 349.056 337.457 350.386 329.591C350.831 326.959 351.81 326.739 352.701 323.671C353.592 320.603 352.255 314.845 352.255 313.365C352.255 311.885 360.791 286.919 365.786 274.988C379.006 243.408 346.562 248.343 346.562 248.343Z" fill="#465788"/>
<path d="M342.822 249.332C342.822 249.332 336.679 253.444 333.075 268.244C329.47 283.045 330.003 288.474 327.6 295.38C326.284 299.167 336.946 278.933 343.888 275.644C348.232 273.586 352.68 272.871 357.506 273.013C360.628 273.104 364.894 277.07 364.894 277.07C369.498 266.827 370.227 259.655 367.922 255.414C362.38 245.225 342.822 249.332 342.822 249.332Z" fill="#273150"/>
<path d="M311.927 366.87C310.584 361.125 308.68 361.291 312.713 358.655C315.65 356.481 329.18 363.565 329.18 363.565C329.18 363.565 328.468 360.098 329.477 357.608C329.477 357.608 348.698 374.487 340.125 389.337C330.77 405.547 313.426 373.285 311.927 366.87Z" fill="#273150"/>
<path d="M254.89 391.179C258.376 388.285 266.945 378.004 266.051 370.213C265.156 362.422 260.556 355.591 257.023 355.184C253.489 354.777 252.615 348.636 245.801 340.533C238.987 332.43 228.656 327.583 222.267 333.437C216.786 338.459 215.048 350.149 223.327 360.51C227.62 365.885 230.121 370.741 232.962 375.717C243.246 393.736 251.403 394.072 254.89 391.179Z" fill="#13161F"/>
<path d="M254.89 391.179C260.982 385.288 259.146 378.125 243.469 358.876C239.176 343.618 228.211 330.718 221.484 335.91C216.118 340.051 216.253 353.209 222.791 361.167C227.883 367.365 230.043 370.662 232.959 375.717C243.155 393.382 250.445 395.478 254.89 391.179Z" fill="#EC6043"/>
<path d="M330.405 406.399C330.405 406.399 340.206 393.415 339.707 386.169C339.356 381.068 335.731 373.31 332.943 371.202C331.769 370.317 330.567 371.577 328.937 369.228C322.663 360.181 312.113 349.983 301.967 356.893C293.591 362.597 296.922 373.302 301.046 379.571C305.17 385.841 310.641 391.732 312.588 394.962C319.531 406.474 325.464 410.511 330.405 406.399Z" fill="#13161F"/>
<path d="M328.671 407.887C328.671 407.887 338.549 404.262 320.378 379.118C310.685 355.263 301.435 356.73 297.695 361.499C294.877 365.095 296.082 374.192 301.161 381.662C306.241 389.129 311.138 393.428 312.65 396.039C319.008 407.035 323.325 409.143 328.671 407.887Z" fill="#EC6043"/>
<path d="M334.01 284.196C335.077 282.221 342.822 275.316 352.168 277.619C352.168 277.619 334.81 287.16 330.537 290.449C326.265 293.737 332.94 286.171 334.01 284.196Z" fill="#273150"/>
<path d="M328.671 300.976C328.671 300.976 331.476 303.441 336.282 300.481L334.01 305.087C334.01 305.087 335.88 307.39 339.484 305.91C343.089 304.426 333.21 320.382 328.671 300.976Z" fill="#273150"/>
<path d="M357.331 271.699C361.847 274.904 360.891 284.666 358.576 293.654L366.052 274.11C366.052 274.11 352.812 268.49 357.331 271.699Z" fill="#273150"/>
<path d="M283.139 317.751C283.139 317.751 269.693 340.604 255.99 336.95L283.139 317.751Z" fill="#465788"/>
<path d="M270.189 290.121C270.189 290.121 275.262 291.106 277.665 289.464C280.068 287.817 276.328 293.742 276.328 293.742C276.328 293.742 278.998 299.99 274.192 297.359C269.386 294.727 270.189 290.121 270.189 290.121Z" fill="#273150"/>
<path d="M300.185 235.076C300.185 235.076 303.925 240.34 311.934 241.874C319.943 243.408 336.858 181.35 332.228 171.921C327.601 162.492 308.015 181.13 302.318 197.797C296.625 214.464 300.185 235.076 300.185 235.076Z" fill="#EC5E4D"/>
<path d="M364.851 249.494C364.851 249.494 366.943 254.812 369.525 255.909C370.183 256.383 375.354 255.963 379.049 254.047C382.745 252.126 384.166 249.827 389.687 249.494C395.205 249.166 402.37 250.097 406.289 245.931C410.204 241.766 405.131 240.997 403.261 240.776C402.337 240.668 398.634 244.065 396.896 244.065C391.749 244.065 381.142 247.519 376.467 250.48C373.379 252.438 365.897 247.831 364.851 249.494Z" fill="#F4E8D8"/>
<path d="M396.761 229.264C406.818 231.676 411.003 234.307 408.334 241.982C406.633 246.867 395.208 247.694 390.753 246.863C385.191 245.819 380.561 251.744 371.303 254.263C366.693 255.518 364.182 252.837 363.648 245.711C363.25 240.398 367.371 223.739 374.951 220.6C381.843 217.753 391.975 228.117 396.761 229.264Z" fill="#EC5E4D"/>
<path d="M366.187 164.463C366.187 164.463 357.375 158.048 343.355 159.528C329.335 161.008 324.742 162.596 322.17 169.726C320.034 175.646 322.926 196.043 320.925 210.843C319.568 220.875 309.976 229.921 306.773 241.762C306.773 241.762 320.952 256.637 346.474 253.053C360.537 251.078 373.443 264.785 373.801 267.089C374.23 264.794 374.263 259.738 374.601 236.004C374.992 208.59 376.278 169.755 366.187 164.463Z" fill="#F6BE4A"/>
<path d="M354.172 161.998C347.763 161.503 342.69 141.439 349.498 211.504C350.763 224.521 308.42 235.675 306.773 241.766C306.773 241.766 320.952 256.641 346.474 253.057C360.537 251.082 373.443 264.789 373.801 267.093C374.23 264.798 374.263 259.742 374.601 236.008C374.992 208.59 360.578 162.492 354.172 161.998Z" fill="#F2A62F"/>
<path d="M337.732 160.143C337.732 160.143 332.319 165.02 333.163 171.668C334.006 178.315 346.308 173.663 349.737 167.456C353.166 161.249 342.65 157.703 337.732 160.143Z" fill="#F6874E"/>
<path d="M331.472 162.655C332.538 163.86 326.18 181.292 313.179 195.822C303.567 206.569 301.785 219.287 304.455 227.618C307.327 236.577 308.907 238.199 310.597 240.884C312.298 243.591 300.267 237.347 299.47 235.842C296.8 230.799 292.116 201.875 306.058 184.09C311.043 177.729 311.043 168.741 315.582 165.448C320.125 162.16 330.405 161.449 331.472 162.655Z" fill="#972A27"/>
<path opacity="0.5" d="M331.472 162.654C332.539 163.86 326.18 181.292 313.18 195.822C303.568 206.569 301.786 219.287 304.455 227.618C307.327 236.577 308.907 238.199 310.598 240.884C312.299 243.591 300.267 237.346 299.47 235.841C296.801 230.798 294.965 206.261 308.907 188.476C313.892 182.115 311.043 168.741 315.583 165.452C320.125 162.16 330.406 161.449 331.472 162.654Z" fill="#972A27"/>
<path d="M299.962 236.448C299.962 236.448 299.739 238.477 300.63 239.575C301.521 240.672 306.105 243.25 309.797 243.52C309.797 243.52 312.112 241.658 309.53 241.109C306.948 240.56 299.962 236.448 299.962 236.448Z" fill="#F4E8D8"/>
<path d="M333.297 161.174C332.157 159.611 328.589 159.644 325.464 161.32C322.821 162.738 322.038 169.157 319.308 176.299C317.347 181.425 314.603 191.657 309.797 200.208C307.155 204.91 316.206 204.374 329.399 173.169C331.718 167.689 334.047 162.201 333.297 161.174Z" fill="#F4E8D8"/>
<path d="M338.549 159.366C332.673 163.478 333.075 187.819 335.879 188.314C338.684 188.809 352.704 174.333 351.232 161.835" stroke="#913636" stroke-miterlimit="10"/>
<path d="M336.533 190.735C336.729 189.348 336.446 188.13 335.9 188.013C335.355 187.896 334.754 188.925 334.558 190.312C334.362 191.698 334.645 192.917 335.191 193.034C335.736 193.151 336.337 192.122 336.533 190.735Z" fill="#29ACE4"/>
<path d="M333.298 161.174C332.157 159.611 328.59 159.644 325.465 161.32C322.822 162.738 322.039 169.157 319.309 176.299C318.256 179.055 321.013 177.401 324.395 174.333C323.072 178.656 323.058 178.611 323.058 178.611C326.889 175.014 333.507 161.461 333.298 161.174Z" fill="#F4E8D8"/>
<path d="M336.734 152.656C336.734 152.656 337.52 160.326 337.723 164.712C337.925 169.098 340.213 168.866 343.258 168.412C346.305 167.959 349.356 169.261 350.099 163.116C350.841 156.971 352.144 146.661 349.471 145.139C346.801 143.618 336.518 144.761 336.734 152.656Z" fill="#F6874E"/>
<path d="M342.023 151.966C342.708 157.915 349.286 167.847 350.035 163.644C350.784 159.441 351.992 147.11 350.501 145.8C348.223 143.792 341.334 146.017 342.023 151.966Z" fill="#CE6D3E"/>
<path d="M351.634 165.012C351.634 165.012 351.368 197.356 355.64 207.226C359.913 217.096 371.796 218.247 377.004 240.119C379.319 249.844 383.68 235.184 395.695 234.856C400.98 234.711 404.274 237.039 405.665 237.596C408.702 238.822 404.099 246.276 406.464 244.613C415.81 238.036 405.573 230.973 404.861 227.946C403.883 223.781 401.834 209.417 393.467 206.785C384.655 204.012 377.001 185.516 375.131 178.606C373.261 171.697 372.995 164.463 366.585 161.831C360.176 159.2 352.701 158.763 351.634 165.012Z" fill="#972A27"/>
<path opacity="0.5" d="M351.634 165.012C351.634 165.012 351.368 197.356 355.64 207.226C359.913 217.096 360.966 226.275 379.14 230.582C386.083 232.229 383.147 204.266 381.277 197.36C379.407 190.455 372.998 164.467 366.589 161.835C360.18 159.204 352.701 158.763 351.634 165.012Z" fill="#972A27"/>
<path d="M381.229 242.531C381.229 242.531 382.92 244.119 383.855 244.393C385.239 244.801 389.195 238.801 394.004 237.704C398.81 236.606 404.703 237.03 406.019 239.35C407.133 241.308 405.04 245.162 402.192 246.26C401.098 246.68 403.299 247.357 404.416 247.137C406.751 246.671 410.113 241.982 407.889 238.473C406.073 235.613 401.301 234.307 395.961 234.636C391.324 234.923 387.105 237.488 381.229 242.531Z" fill="#F4E8D8"/>
<path d="M362.583 161.174C363.251 159.2 355.374 156.788 351.634 158.435C347.895 160.081 347.095 184.202 352.701 197.36C356.531 206.349 355.205 189.046 356.838 175.322C357.598 168.957 361.914 163.149 362.583 161.174Z" fill="#F4E8D8"/>
<path d="M362.582 161.174C363.251 159.2 355.373 156.788 351.634 158.435C352.7 162.821 355.205 189.046 356.841 175.322C357.597 168.957 361.914 163.149 362.582 161.174Z" fill="#F4E8D8"/>
<path d="M396.495 215.449C396.495 215.449 387.95 212.489 382.61 218.738" stroke="#F4E8D8" stroke-width="4" stroke-miterlimit="10"/>
<path d="M236.811 201.963L282.873 236.502C274.02 212.51 254.212 168.471 249.737 158.576C249.376 157.774 248.421 157.844 248.144 158.697C245.046 168.15 239.484 196.371 239.484 196.371L236.811 201.963Z" fill="#624873"/>
<path d="M364.901 122.228C362.93 138.708 353.882 146.17 346.892 149.538C339.903 152.905 324.32 140.944 322.309 126.672C319.815 112.242 318.205 104.642 337.25 99.6489C356.299 94.6559 366.646 107.635 364.901 122.228Z" fill="#1D2436"/>
<path d="M362.536 123.533C360.862 137.531 344.449 133.665 344.449 133.665C341.128 132.6 329.714 129.807 327.355 122.078C325.34 115.472 322.724 108.009 338.901 103.769C353.704 99.8858 364.018 111.14 362.536 123.533Z" fill="#3D4C6D"/>
<path d="M360.518 130.576C360.518 130.576 361.969 126.132 360.818 121.155C360.818 121.155 365.769 122.885 360.518 130.576Z" fill="#1D2436"/>
<path d="M331.435 112.736C331.435 112.736 323.292 109.04 321.607 111.377C319.923 113.713 320.014 145.11 323.261 152.835C326.508 160.559 346.863 156.073 351.979 150.527C353.17 149.238 355.715 142.923 356.421 135.124C356.842 132.725 351.986 128.223 348.405 122.989C344.824 117.754 331.435 112.736 331.435 112.736Z" fill="#CE6D3E"/>
<path d="M353.495 139.523C353.053 153.882 344.554 156.231 335.833 156.876C327.112 157.516 323.339 154.514 321.918 141.851C320.45 128.784 323.822 120.373 332.543 119.733C341.26 119.085 352.857 126.348 353.495 139.523Z" fill="#F6874E"/>
<path d="M339.865 133.008C339.967 135.078 339.217 136.043 338.377 136.105C337.537 136.167 336.926 135.303 336.825 133.232C336.723 131.162 337.324 129.437 338.164 129.374C339.005 129.312 339.764 130.937 339.865 133.008Z" fill="#34273A"/>
<path d="M327.098 133.569C327.193 135.511 326.491 136.417 325.701 136.475C324.911 136.533 324.337 135.723 324.243 133.777C324.148 131.836 324.712 130.21 325.502 130.152C326.288 130.098 327.004 131.628 327.098 133.569Z" fill="#34273A"/>
<path d="M340.577 128.148C340.577 128.148 339.231 125.159 337.037 125.969" stroke="#34273A" stroke-miterlimit="10" stroke-linecap="round" stroke-linejoin="round"/>
<path d="M326.2 127.03C326.2 127.03 323.602 126.801 322.994 129.337" stroke="#34273A" stroke-miterlimit="10" stroke-linecap="round" stroke-linejoin="round"/>
<path d="M358.8 134.256C359.776 129.657 358.825 125.368 356.675 124.676C354.526 123.983 351.992 127.15 351.016 131.748C350.039 136.347 350.991 140.636 353.14 141.328C355.29 142.021 357.824 138.854 358.8 134.256Z" fill="#F6874E"/>
<path d="M342.347 106.637C335.711 116.632 323.173 119.945 317.631 119.929C312.748 119.916 317.77 103.781 326.332 99.6905C334.895 95.6037 344.969 102.688 342.347 106.637Z" fill="#1D2436"/>
<path d="M341.84 103.839C343.865 105.573 343.031 110.579 339.616 112.77C333.723 116.553 321.877 119.064 319.484 119.205C314.962 119.471 319.012 108.849 325.171 104.455C332.086 99.5241 339.815 102.106 341.84 103.839Z" fill="#3D4C6D"/>
<path d="M332.188 112.782C332.188 112.782 326.404 116.877 321.857 119.16C321.857 119.16 333.886 117.838 332.188 112.782Z" fill="#1D2436"/>
<path d="M349.231 118.519C349.231 118.519 348.367 130.306 349.613 133.752L352.373 138.857L352.991 122.003L349.231 118.519Z" fill="#3D4C6D"/>
<path d="M252.075 199.713L280.78 195.219C280.78 195.219 273.658 167.094 250.428 153.936C216.685 134.825 190.191 178.141 183.137 184.198C174.325 191.765 166.313 193.078 149.492 189.133C149.492 189.133 135.874 219.723 123.322 228.607C123.322 228.607 138.544 232.603 158.837 228.607C177.309 224.974 187.535 215.661 204.235 188.804C213.847 173.347 252.342 168.138 252.075 199.713Z" fill="#F5BF4E"/>
<path d="M148.335 195.057C148.335 195.057 135.874 218.081 131.602 223.677C131.602 223.677 154.282 224.787 166.583 221.702C182.338 217.757 200.144 181.882 212.78 173.676C227.468 164.134 249.352 170.583 253.905 184.202C257.644 195.386 257.955 198.84 257.955 198.84L276.781 195.66C276.781 195.66 263.517 149.334 227.202 154.597C208.531 157.304 191.953 181.571 182.075 190.779C172.189 199.988 161.15 198.346 148.335 195.057Z" fill="#F4E8D8"/>
<path d="M171.922 192.426L163.644 224.658" stroke="#F5BF4E" stroke-width="3" stroke-miterlimit="10"/>
<path d="M193.728 177.401L192.749 201.963" stroke="#F5BF4E" stroke-width="3" stroke-miterlimit="10"/>
<path d="M214.113 180.253L211.71 159.2" stroke="#F5BF4E" stroke-width="3" stroke-miterlimit="10"/>
<path d="M235.741 152.951L230.668 174.332" stroke="#F5BF4E" stroke-width="3" stroke-miterlimit="10"/>
<path d="M250.694 181.899L262.176 166.109" stroke="#F5BF4E" stroke-width="3" stroke-miterlimit="10"/>
<path d="M255.771 196.699L274.461 183.87" stroke="#F5BF4E" stroke-width="3" stroke-miterlimit="10"/>
<path d="M129.194 225.976C129.539 226.071 129.984 226.175 130.521 226.279" stroke="#F4E8D8" stroke-width="6" stroke-miterlimit="10"/>
<path d="M133.909 226.803C144.159 228.071 166.154 228.458 178.061 218.409C192.482 206.241 200.491 181.566 217.849 174.661C227.012 171.015 243.377 169.177 250.694 184.202C252.645 188.638 253.597 192.949 254.059 195.88" stroke="#F4E8D8" stroke-width="6" stroke-miterlimit="10" stroke-dasharray="8.1 8.1"/>
<path d="M254.336 197.955C254.451 199.003 254.478 199.609 254.478 199.609" stroke="#F4E8D8" stroke-width="6" stroke-miterlimit="10"/>
<path d="M279.001 194.234C279.001 194.234 262.966 148.789 231.468 151.637C202.362 154.269 187.14 189.794 174.055 193.739C162.604 197.194 148.419 191.765 148.419 191.765" stroke="#F4E8D8" stroke-width="5" stroke-miterlimit="10" stroke-dasharray="8 8"/>
<path opacity="0.5" d="M183.137 184.202C174.325 191.769 166.313 193.082 149.492 189.137C149.492 189.137 135.874 219.727 123.322 228.612C123.322 228.612 138.544 232.607 158.837 228.612C177.309 224.978 187.535 215.666 204.235 188.809C183.137 195.386 183.137 184.202 183.137 184.202Z" fill="#F5BF4E"/>
<path d="M191.147 144.728C198.77 144.728 204.95 137.217 204.95 127.952C204.95 118.688 198.77 111.177 191.147 111.177C183.523 111.177 177.343 118.688 177.343 127.952C177.343 137.217 183.523 144.728 191.147 144.728Z" fill="#29ACE4"/>
<path d="M197.241 123.737L194.518 136.621C194.241 137.93 192.813 138.175 192.26 137.007L184.524 120.764C183.968 119.596 184.835 118.182 185.901 118.523L196.361 121.878C197.015 122.09 197.414 122.922 197.241 123.737Z" fill="#F6BE4A"/>
<path opacity="0.5" d="M203.165 125.649C203.165 133.357 180.201 133.357 180.201 125.649C180.201 117.941 185.341 111.697 191.683 111.697C198.021 111.697 203.165 117.941 203.165 125.649Z" fill="#29ACE4"/>
<path d="M225.595 124.415C225.595 124.415 235.47 131.711 237.839 136.579L254.032 120.037L241.788 100.576C241.788 100.576 228.359 122.955 225.595 124.415Z" fill="#9A6EA7"/>
<path d="M241.788 100.576C243.499 103.657 240.968 121.97 240.968 121.97C240.792 123.442 239.83 124.581 238.629 124.739L225.595 124.415L241.788 100.576Z" fill="#624873"/>
<path d="M240.208 114.848L251.268 116.145" stroke="#624873" stroke-miterlimit="10"/>
<path d="M235.733 124.09L236.304 134.093" stroke="#624873" stroke-miterlimit="10"/>
<path opacity="0.5" d="M227.525 121.928L249.162 112.682L241.744 101.058C241.744 101.062 230.597 118.415 227.525 121.928Z" fill="#9A6EA7"/>
<path d="M279.814 62.6229L269.008 72.2806C265.666 75.2656 264.92 81.0278 267.347 85.1436L275.187 98.4556C276.105 100.01 277.344 101.112 278.711 101.715C278.728 101.723 278.738 101.736 278.755 101.744L287.374 105.44C287.982 105.702 288.576 105.012 288.404 104.247L287.222 99.0834L296.44 90.8475C299.781 87.8625 300.527 82.1004 298.1 77.9845L290.26 64.6725C287.833 60.5525 283.156 59.6379 279.814 62.6229Z" fill="#F6BE4A"/>
<path d="M286.65 67.9009L271.087 81.8086L272.968 85.002L288.53 71.0943L286.65 67.9009Z" fill="#F4E8D8"/>
<path d="M289.472 72.6951L273.909 86.6028L275.79 89.7962L291.353 75.8885L289.472 72.6951Z" fill="#F4E8D8"/>
<path d="M292.294 77.4893L276.731 91.397L278.612 94.5904L294.175 80.6827L292.294 77.4893Z" fill="#F4E8D8"/>
<path opacity="0.5" d="M279.922 65.1797L269.999 74.0475C266.932 76.7914 298.937 83.0607 296.709 79.2817L289.51 67.0589C287.283 63.2756 282.99 62.4358 279.922 65.1797Z" fill="#F6BE4A"/>
<path d="M398.273 58.7773L356.427 48.3589C356.15 48.2882 355.836 48.6915 355.725 49.2486L349.731 79.4438C349.619 80.0009 349.747 80.5331 350.017 80.6328L390.865 95.4748C391.213 95.6037 391.601 95.1879 391.729 94.5518L398.688 60.0994C398.817 59.455 398.631 58.8646 398.273 58.7773Z" fill="#F6BE4A"/>
<path d="M398.749 56.3079L356.903 45.8894C356.626 45.8187 356.315 46.222 356.204 46.7791L350.21 76.9743C350.099 77.5314 350.227 78.0636 350.497 78.1633L391.345 93.0053C391.692 93.1342 392.08 92.7184 392.209 92.0823L399.168 57.6299C399.293 56.9855 399.107 56.3952 398.749 56.3079Z" fill="#465788"/>
<path d="M371.651 58.162L379.539 69.0212C379.785 69.3579 379.647 70.0398 379.302 70.1977L368.229 75.2698C367.925 75.407 367.679 74.9954 367.777 74.5131L370.963 58.5736C371.061 58.0914 371.435 57.8669 371.651 58.162Z" fill="#EC5E4D"/>
<path opacity="0.5" d="M397.491 56.8941L360.929 47.7935C360.69 47.7353 360.416 48.0804 360.318 48.5709L391.017 88.956C391.321 89.0682 391.662 88.7066 391.773 88.1495L397.852 58.0457C397.966 57.4886 397.804 56.9689 397.491 56.8941Z" fill="#465788"/>
<path d="M420.518 86.765C420.163 88.5361 418.446 89.5131 416.718 88.9643C415.02 88.4238 413.94 86.6112 414.278 84.8983C414.615 83.1855 416.255 82.1752 417.973 82.6533C419.721 83.1439 420.876 84.9898 420.518 86.765Z" fill="#F6BE4A"/>
<path d="M431.898 90.1242C431.5 92.02 429.701 93.0843 427.912 92.5147C426.157 91.9577 425.067 90.0369 425.442 88.2077C425.816 86.3743 427.534 85.2767 429.31 85.7673C431.122 86.2662 432.296 88.2243 431.898 90.1242Z" fill="#F6BE4A"/>
<path d="M419.286 86.6694L423.367 68.5306L434.403 70.626L430.744 88.9892" stroke="#F6BE4A" stroke-width="8" stroke-miterlimit="10" stroke-linecap="round" stroke-linejoin="round"/>
<path d="M446.617 75.2283C447.238 76.6626 446.428 78.6623 444.838 79.6809C443.279 80.6787 441.547 80.3502 440.94 78.97C440.332 77.5855 441.071 75.6232 442.614 74.5756C444.19 73.503 445.992 73.7898 446.617 75.2283Z" fill="#F6BE4A"/>
<path d="M452.779 65.7909C453.214 62.5606 448.611 57.6715 448.611 57.6715L445.276 76.3591" stroke="#F6BE4A" stroke-width="8" stroke-miterlimit="10" stroke-linecap="round" stroke-linejoin="round"/>
<path d="M310.433 68.6553C309.076 75.989 312.555 82.7905 317.999 84.4119C323.339 86.0042 329.275 82.2168 331.533 75.4485C334.01 68.0151 331.236 59.6878 324.975 57.4885C318.566 55.2394 311.931 60.5692 310.433 68.6553Z" fill="#EC5E4D"/>
<path d="M315.924 64.7848C319.393 60.6606 321.904 66.7512 322.212 67.5495C322.846 67.0672 327.774 63.5251 328.671 69.0212C329.991 77.0949 320.122 79.951 318.985 80.2545L318.972 80.3127C318.972 80.3127 318.958 80.2961 318.931 80.2711C318.897 80.2795 318.877 80.2836 318.877 80.2836L318.891 80.2254C318.057 79.3149 310.72 70.9669 315.924 64.7848Z" fill="#F4E8D8"/>
<path d="M327.784 235.563C329.174 233.484 327.149 232.312 321.023 232.42C318.523 232.466 316.211 233.21 312.937 232.333C310.807 231.763 308.286 232.299 309.275 234.785C310.105 236.864 310.922 239.105 314.776 238.964C315.819 238.926 319.451 239.113 321.469 239.334C323.389 239.546 326.876 236.922 327.784 235.563Z" fill="#F6874E"/>
<path d="M236.811 201.963L268.856 273.67L278.07 271.038L322.266 268.735L313.72 239.625C315.451 239.093 316.45 236.86 315.89 234.773L304.854 195.893C304.111 193.116 301.87 191.382 299.515 191.765L236.811 201.963Z" fill="#9A6EA7"/>
<path d="M274.064 244.264C274.064 244.264 269.751 238.656 267.233 241.163C264.716 243.674 265.796 248.546 268.074 251.498C270.352 254.45 274.294 256.974 276.822 253.86C279.815 250.168 274.064 244.264 274.064 244.264Z" fill="#F4E8D8"/>
<path d="M277.267 216.547C275.28 219.316 271.469 238.361 269.923 242.202C267.385 248.505 271.925 253.224 275.398 250.426C278.553 247.885 293.69 244.011 296.495 240.556C297.649 239.134 301.702 234.307 295.293 223.781C288.705 212.967 280.339 212.269 277.267 216.547Z" fill="#F5BF4E"/>
<path d="M295.494 238.188C298.241 234.804 296.689 227.408 292.029 221.667C287.368 215.926 281.364 214.015 278.617 217.398C275.87 220.782 277.422 228.179 282.082 233.919C286.743 239.66 292.747 241.571 295.494 238.188Z" fill="#F4E8D8"/>
<path d="M285.215 235.88C286.772 233.963 287.115 231.276 285.981 229.88C284.848 228.484 282.667 228.906 281.11 230.824C279.554 232.741 279.211 235.428 280.344 236.824C281.478 238.22 283.659 237.798 285.215 235.88Z" fill="#465788"/>
<path opacity="0.5" d="M245.977 200.678C245.977 200.678 310.199 232.2 312.046 233.035C313.892 233.871 312.046 233.035 312.046 233.035C313.531 232.578 314.391 230.661 313.912 228.869L304.428 195.469C303.79 193.082 301.863 191.594 299.842 191.923L245.977 200.678Z" fill="#9A6EA7"/>
<path d="M361.071 216.435C359.559 210.951 360.892 194.367 360.892 179.812C360.892 171.26 365.661 163.719 369.792 164.679C376.38 166.213 377.805 173.888 379.05 183.757C380.805 197.664 381.47 218.526 377.403 229.26C373.663 239.134 362.583 221.918 361.071 216.435Z" fill="#1D2436"/>
<path d="M361.071 216.435C359.559 210.951 360.892 194.367 360.892 179.812C360.892 171.26 365.661 163.719 369.792 164.679C376.38 166.213 366.944 177.617 368.189 187.487C369.944 201.393 374.568 207.895 370.504 218.626C366.765 228.499 362.583 221.918 361.071 216.435Z" fill="#1D2436"/>
<path d="M369.438 215.557C366.589 212.926 361.989 211.67 359.826 213.366C357.683 215.046 357.19 216.472 357.19 216.472C357.19 216.472 353.163 216.659 350.102 219.939C347.068 223.19 330.23 225.423 328.07 231.077C325.877 236.818 323.973 248.904 333.757 251.307C344.726 254.005 346.67 247.79 350.926 246.476C355.31 245.125 372.465 236.635 375.938 230.578C378.071 226.853 374.294 220.047 369.438 215.557Z" fill="#C83F37"/>
<path d="M369.438 215.557C368.149 214.368 373.485 225.61 364.453 233.538C362.418 235.326 357.568 235.908 354.841 237.484C342.904 244.385 329.397 250.23 333.757 251.303C344.726 254.001 346.67 247.786 350.926 246.472C355.31 245.121 372.465 236.631 375.938 230.574C378.071 226.853 374.295 220.047 369.438 215.557Z" fill="#972A27"/>
<path d="M328.313 231.46C331.516 228.171 334.989 228.499 337.75 235.954C337.75 235.954 338.55 231.568 340.332 236.174C342.441 241.633 340.457 251.324 334.993 251.415C328.401 251.523 326.467 233.351 328.313 231.46Z" fill="#972A27"/>
<path d="M333.076 251.939C329.599 252.654 326.14 248.343 325.3 242.576C324.493 237.064 326.363 232.033 329.518 231.102C332.758 230.146 336.326 233.796 337.453 239.512C338.631 245.511 336.653 251.203 333.076 251.939Z" fill="#F4E8D8"/>
<path d="M331.506 250.118C329.471 250.446 327.19 246.896 326.4 242.364C325.641 238.012 326.525 234.224 328.384 233.742C330.285 233.251 332.586 236.357 333.521 240.859C334.493 245.553 333.589 249.785 331.506 250.118Z" fill="#972A27"/>
<path d="M332.276 249.823L326.356 253.934C326.356 253.934 321.104 258.977 318.077 258.757C315.05 258.537 309.936 258.72 308.418 258.046C304.968 256.512 307.884 254.978 307.884 254.978C307.884 254.978 306.038 255.826 304.101 255.169C302.727 254.704 301.512 251.847 303.966 251.469L305.856 251.112C305.856 251.112 300.405 251.989 300.135 248.975C299.943 246.796 301.56 246.343 304.941 246.563C308.323 246.784 315.444 243.246 316.69 242.809C317.935 242.373 320.311 238.419 323.231 234.968C329.65 227.402 336.612 244.476 332.276 249.823Z" fill="#F6874E"/>
<path d="M322.127 241.516C322.127 241.516 323.129 237.978 321.992 237.322C320.858 236.665 317.341 240.448 315.205 241.105C313.068 241.762 303.767 241.271 301.897 241.762C300.027 242.252 300.162 244.393 301.897 245.05C303.632 245.707 306.906 246.119 310.709 245.624C316.072 244.934 315.424 244.705 322.127 241.516Z" fill="#F6874E"/>
<path d="M357.187 216.472C357.187 216.472 362.448 216.763 365.121 219.233C367.791 221.698 363.461 212.198 357.187 216.472Z" fill="#972A27"/>
<path d="M356.974 217.258C356.974 217.258 363.248 220.875 364.851 228.77C364.851 228.77 366.454 222.683 363.248 220.052C360.045 217.424 357.24 216.272 356.974 217.258Z" fill="#972A27"/>
<path d="M262.447 104.596C262.447 104.596 289.684 120.386 289.684 170.383" stroke="#F6BE4A" stroke-width="7" stroke-miterlimit="10" stroke-linecap="round" stroke-linejoin="round"/>
<path d="M256.038 109.203C256.038 109.203 268.323 114.466 270.993 125.649" stroke="#29ACE4" stroke-width="7" stroke-miterlimit="10" stroke-linecap="round" stroke-linejoin="round"/>
<path d="M274.462 135.843C275.568 135.843 276.464 134.74 276.464 133.378C276.464 132.016 275.568 130.913 274.462 130.913C273.357 130.913 272.461 132.016 272.461 133.378C272.461 134.74 273.357 135.843 274.462 135.843Z" fill="#29ACE4"/>
<path d="M323.13 221.773C323.13 221.773 362.452 175.484 401.035 191.108" stroke="#29ACE4" stroke-width="7" stroke-miterlimit="10" stroke-linecap="round" stroke-linejoin="round"/>
<path d="M427.002 219.046C427.002 219.046 399.901 182.951 367.933 202.179" stroke="#F6BE4A" stroke-width="7" stroke-miterlimit="10" stroke-linecap="round" stroke-linejoin="round"/>
<path d="M409.847 196.043C410.952 196.043 411.848 194.939 411.848 193.577C411.848 192.216 410.952 191.112 409.847 191.112C408.742 191.112 407.846 192.216 407.846 193.577C407.846 194.939 408.742 196.043 409.847 196.043Z" fill="#29ACE4"/>
<path d="M408.683 107.569C400.718 102.613 391.002 106.546 386.979 116.358C385.119 120.889 384.805 125.882 385.784 130.435C385.787 130.447 385.787 130.455 385.787 130.468C385.794 130.501 385.801 130.534 385.808 130.563C385.818 130.605 385.824 130.642 385.835 130.684C387.725 139.273 391.417 152.061 393.044 152.348C395.504 152.781 406.544 145.642 410.077 142.121C412.446 140.263 414.458 137.627 415.818 134.313C419.841 124.498 416.648 112.529 408.683 107.569Z" fill="#EC5E4D"/>
<path d="M401.396 140.5C408.196 140.5 413.708 133.709 413.708 125.333C413.708 116.957 408.196 110.167 401.396 110.167C394.596 110.167 389.084 116.957 389.084 125.333C389.084 133.709 394.596 140.5 401.396 140.5Z" fill="#F4E8D8"/>
<path opacity="0.5" d="M386.975 116.358C385.115 120.889 384.801 125.882 385.78 130.435C385.783 130.447 385.783 130.455 385.783 130.468C385.79 130.501 385.797 130.534 385.804 130.563C385.814 130.605 385.821 130.642 385.831 130.684C387.721 139.273 391.413 152.061 393.04 152.348C394.484 152.602 417.569 136.188 408.49 116.782C399.412 97.3749 388.639 112.304 386.975 116.358Z" fill="#EC5E4D"/>
<path d="M418.393 243.08C418.393 243.08 436.283 233.048 446.165 218.081C446.165 218.081 474.472 218.081 480.077 218.409C480.077 218.409 470.732 250.318 453.374 267.093C453.374 267.093 432.547 272.356 418.393 243.08Z" fill="#F6BE4A"/>
<path d="M450.225 222.292C450.225 222.292 444.666 228.495 439.999 233.513C435.665 238.174 428.689 244.335 425.871 246.568C425.871 246.568 431.794 253.174 436.553 254.155C444.963 255.893 450.704 250.318 450.704 250.318L446.877 237.405L455.244 231.909L450.225 222.292Z" fill="#9A6EA7"/>
<path d="M461.559 234.582L462.204 232.894C462.7 231.597 464.124 230.653 465.575 230.786C467.266 230.94 468.383 232.466 467.779 234.199L466.993 236.465C466.362 238.278 464.387 239.009 462.855 238.199C461.552 237.517 461.05 235.925 461.559 234.582Z" fill="#9A6EA7"/>
<path opacity="0.5" d="M418.393 243.08C418.393 243.08 436.283 233.048 446.165 218.081C446.165 218.081 468.731 218.409 474.337 218.738C474.337 218.738 437.485 261.667 418.393 243.08Z" fill="#F6BE4A"/>
<path d="M244.645 66.5444L234.392 62.8131L231.363 75.4438L241.616 79.175L244.645 66.5444Z" fill="#F4E8D8"/>
<path d="M309.458 119.747L298.776 106.589L288.095 119.747L298.776 132.905L309.458 119.747Z" stroke="#F4E8D8" stroke-width="3" stroke-miterlimit="10"/>
<path d="M420.03 288.545L412.561 268.437L396.237 277.639L403.707 297.746L420.03 288.545Z" fill="#FCAADC"/>
<path d="M406.344 278.098L400.005 261.034L386.152 268.843L392.491 285.907L406.344 278.098Z" fill="#FCAADC"/>
<path d="M236.344 227.272L229.173 210.108L215.239 218.941L222.41 236.105L236.344 227.272Z" stroke="#F4E8D8" stroke-width="3" stroke-miterlimit="10"/>
<path d="M470.296 119.643L460.737 96.7638L442.164 108.538L451.722 131.417L470.296 119.643Z" stroke="#F4E8D8" stroke-width="3" stroke-miterlimit="10"/>
<path d="M478.809 125.318L471.639 108.154L457.705 116.987L464.875 134.151L478.809 125.318Z" fill="#F4E8D8"/>
<path d="M222.251 224.846L216.896 212.029L206.492 218.625L211.846 231.442L222.251 224.846Z" fill="#F4E8D8"/>
<path d="M452.824 151.82L447.566 175.497L426.452 174.245C422.632 187.187 430.884 197.992 442.963 198.013C455.254 198.03 465.106 188.538 467.887 175.206C470.52 162.575 464.08 151.467 452.824 151.82Z" fill="#C83F37"/>
<path d="M451.096 150.124L446.125 172.512L426.159 171.331C422.547 183.57 428.639 192.708 440.013 194.01C452.041 195.381 463.449 183.304 466.078 170.699C468.569 158.755 461.741 149.791 451.096 150.124Z" fill="#29ABE3"/>
<path opacity="0.5" d="M441.717 172.254L426.159 171.335C422.547 183.574 428.639 192.712 440.013 194.014C447.769 194.899 455.268 190.189 460.32 183.354C448.835 183.105 441.717 172.254 441.717 172.254Z" fill="#29ACE4"/>
<path d="M423.05 169.439L422.382 166.313L449.166 143.655C449.166 143.655 449.547 145.385 449.834 146.781L444.562 170.055L423.05 169.439Z" fill="#EC5E4D"/>
<path d="M422.382 166.318C426.115 153.912 437.951 144.038 449.166 143.66L443.806 167.552L422.382 166.318Z" fill="#F6BE4A"/>
<path opacity="0.5" d="M422.382 166.317C424.272 160.031 428.244 154.394 433.165 150.315C432.277 161.507 439.942 167.331 439.942 167.331L422.382 166.317Z" fill="#F6BE4A"/>
</svg>
