<svg width="25" height="25" viewBox="0 0 25 25" fill="none" xmlns="http://www.w3.org/2000/svg">
<path opacity="0.4" d="M11.1979 2.55206C11.9167 1.93748 13.0938 1.93748 13.8229 2.55206L15.4688 3.96873C15.7813 4.23956 16.3646 4.45831 16.7813 4.45831H18.5521C19.6563 4.45831 20.5625 5.36456 20.5625 6.46873V8.23956C20.5625 8.64581 20.7813 9.23956 21.0521 9.55206L22.4688 11.1979C23.0834 11.9166 23.0834 13.0937 22.4688 13.8229L21.0521 15.4687C20.7813 15.7812 20.5625 16.3646 20.5625 16.7812V18.5521C20.5625 19.6562 19.6563 20.5625 18.5521 20.5625H16.7813C16.375 20.5625 15.7813 20.7812 15.4688 21.0521L13.8229 22.4687C13.1042 23.0833 11.9271 23.0833 11.1979 22.4687L9.5521 21.0521C9.2396 20.7812 8.65627 20.5625 8.2396 20.5625H6.43752C5.33335 20.5625 4.4271 19.6562 4.4271 18.5521V16.7708C4.4271 16.3646 4.20835 15.7812 3.94794 15.4687L2.54169 13.8125C1.93752 13.0937 1.93752 11.9271 2.54169 11.2083L3.94794 9.55206C4.20835 9.23956 4.4271 8.65623 4.4271 8.24998V6.45831C4.4271 5.35415 5.33335 4.4479 6.43752 4.4479H8.2396C8.64585 4.4479 9.2396 4.22915 9.5521 3.95831L11.1979 2.55206Z" fill="#FCAADC"/>
<path d="M11.2396 15.8021C11.0313 15.8021 10.8334 15.7188 10.6875 15.5729L8.16669 13.0521C7.8646 12.75 7.8646 12.25 8.16669 11.9479C8.46877 11.6458 8.96877 11.6458 9.27085 11.9479L11.2396 13.9167L15.7188 9.4375C16.0209 9.13542 16.5209 9.13542 16.8229 9.4375C17.125 9.73958 17.125 10.2396 16.8229 10.5417L11.7917 15.5729C11.6459 15.7188 11.4479 15.8021 11.2396 15.8021Z" fill="#E70587"/>
</svg>
