<svg width="1416" height="677" viewBox="0 0 1416 677" fill="none" xmlns="http://www.w3.org/2000/svg">
<path d="M910.799 627.472C910.799 629.854 909.082 631.79 906.967 631.79C904.853 631.79 903.135 629.854 903.135 627.472C903.135 625.09 904.853 623.155 906.967 623.155C909.082 623.155 910.799 625.085 910.799 627.472Z" stroke="#4D2C5E" stroke-opacity="0.1" stroke-width="2" stroke-miterlimit="10" stroke-linecap="round" stroke-linejoin="round"/>
<path d="M947.978 664.917C950.094 664.917 951.81 662.984 951.81 660.6C951.81 658.215 950.094 656.282 947.978 656.282C945.861 656.282 944.146 658.215 944.146 660.6C944.146 662.984 945.861 664.917 947.978 664.917Z" stroke="#4D2C5E" stroke-opacity="0.1" stroke-width="2" stroke-miterlimit="10" stroke-linecap="round" stroke-linejoin="round"/>
<path d="M933.551 651.723C938.064 651.723 941.723 647.601 941.723 642.515C941.723 637.43 938.064 633.307 933.551 633.307C929.037 633.307 925.378 637.43 925.378 642.515C925.378 647.601 929.037 651.723 933.551 651.723Z" stroke="#4D2C5E" stroke-opacity="0.1" stroke-width="2" stroke-miterlimit="10" stroke-linecap="round" stroke-linejoin="round"/>
<path d="M947.791 642.515L945.065 647.883L943.619 653.859L938.32 655.483L933.551 658.559L928.782 655.483L923.478 653.859L922.037 647.883L919.306 642.515L922.037 637.142L923.478 631.166L928.782 629.543L933.551 626.467L938.32 629.543L943.619 631.166L945.065 637.142L947.791 642.515Z" stroke="#4D2C5E" stroke-opacity="0.1" stroke-width="2" stroke-miterlimit="10" stroke-linecap="round" stroke-linejoin="round"/>
<path d="M944.146 660.6C944.146 658.217 945.863 656.282 947.978 656.282C949.12 656.282 950.146 656.85 950.846 657.745C953.764 653.543 955.508 648.26 955.508 642.51C955.508 628.844 945.676 617.766 933.546 617.766C921.417 617.766 911.584 628.844 911.584 642.51C911.584 656.177 921.417 667.254 933.546 667.254C937.811 667.254 941.786 665.882 945.154 663.515C944.534 662.746 944.146 661.726 944.146 660.6Z" stroke="#4D2C5E" stroke-opacity="0.1" stroke-width="2" stroke-miterlimit="10" stroke-linecap="round" stroke-linejoin="round"/>
<path d="M933.551 609.031C923.304 609.031 914.265 614.876 908.925 623.768C910.045 624.522 910.799 625.899 910.799 627.477C910.799 629.859 909.082 631.795 906.967 631.795C906.445 631.795 905.95 631.674 905.499 631.463C904.424 634.926 903.835 638.64 903.835 642.515C903.835 661.007 917.143 676 933.555 676C949.968 676 963.275 661.007 963.275 642.515C963.275 624.024 949.963 609.031 933.551 609.031Z" stroke="#4D2C5E" stroke-opacity="0.1" stroke-width="2" stroke-miterlimit="10" stroke-linecap="round" stroke-linejoin="round"/>
<path d="M1022.47 71.7289L1004.04 64.6732C1002.09 63.9296 1001.05 61.5439 1001.71 59.3487C1002.37 57.1534 1004.48 55.9815 1006.43 56.7251L1024.87 63.7808C1026.82 64.5245 1027.86 66.9101 1027.2 69.0994C1026.54 71.3006 1024.42 72.4785 1022.47 71.7289Z" stroke="#4D2C5E" stroke-opacity="0.1" stroke-width="3" stroke-miterlimit="10"/>
<path d="M1020.05 79.7722L1001.61 72.7165C999.664 71.9728 998.624 69.5872 999.284 67.3979C999.944 65.2027 1002.06 64.0307 1004.01 64.7743L1022.45 71.8241C1024.4 72.5677 1025.44 74.9534 1024.78 77.1486C1024.11 79.3439 1022 80.5158 1020.05 79.7722Z" stroke="#4D2C5E" stroke-opacity="0.1" stroke-width="3" stroke-miterlimit="10"/>
<path d="M1003.66 35.0284C1003.68 35.0998 1003.7 35.1653 1003.72 35.2367C1004.13 36.718 1006.56 46.1058 1005.55 56.5228L1025.33 63.876C1030.02 54.8273 1036.93 48.9197 1038.04 48.0036C1038.09 47.9619 1038.15 47.9203 1038.19 47.8787C1038.73 47.4444 1039.26 46.9803 1039.76 46.4865C1042.74 43.5893 1045.09 39.7759 1046.41 35.2664C1050.3 21.9878 1043.9 7.66816 1032.11 3.28362C1020.33 -1.10092 1007.62 6.10948 1003.72 19.388C1002.4 23.9035 1002.27 28.5379 1003.13 32.8629C1003.28 33.5887 1003.46 34.3145 1003.66 35.0284Z" stroke="#4D2C5E" stroke-opacity="0.1" stroke-width="3" stroke-miterlimit="10"/>
<path d="M1002.62 73.2043C1002.4 77.6067 1004.81 81.8009 1008.7 83.2525C1012.55 84.6803 1016.64 82.9848 1018.82 79.3974L1002.62 73.2043Z" stroke="#4D2C5E" stroke-opacity="0.1" stroke-width="3" stroke-miterlimit="10"/>
<path d="M1011.74 58.7062L1017.62 38.6396C1018.2 36.6645 1017.24 34.5347 1015.49 33.8803C1013.74 33.2259 1011.85 34.3027 1011.26 36.2778C1010.68 38.253 1011.64 40.3828 1013.39 41.0372L1020.45 43.6607" stroke="#4D2C5E" stroke-opacity="0.1" stroke-width="3" stroke-miterlimit="10"/>
<path d="M1019.49 61.5915L1025.37 41.5249C1025.95 39.5498 1027.84 38.4789 1029.59 39.1274C1031.35 39.7818 1032.3 41.9116 1031.72 43.8867C1031.14 45.8619 1029.25 46.9327 1027.5 46.2843L1020.44 43.6607" stroke="#4D2C5E" stroke-opacity="0.1" stroke-width="3" stroke-miterlimit="10"/>
<path d="M1050.58 42.1793L1056.54 44.3984" stroke="#4D2C5E" stroke-opacity="0.1" stroke-width="3" stroke-miterlimit="10" stroke-linecap="round"/>
<path d="M1053.31 33.7256L1059.52 32.6726" stroke="#4D2C5E" stroke-opacity="0.1" stroke-width="3" stroke-miterlimit="10" stroke-linecap="round"/>
<path d="M1046.42 49.4314L1050.84 54.4406" stroke="#4D2C5E" stroke-opacity="0.1" stroke-width="3" stroke-miterlimit="10" stroke-linecap="round"/>
<path d="M995.26 21.607L989.304 19.3939" stroke="#4D2C5E" stroke-opacity="0.1" stroke-width="3" stroke-miterlimit="10" stroke-linecap="round"/>
<path d="M997.536 12.9808L993.111 7.97156" stroke="#4D2C5E" stroke-opacity="0.1" stroke-width="3" stroke-miterlimit="10" stroke-linecap="round"/>
<path d="M994.78 30.2274L988.581 31.2804" stroke="#4D2C5E" stroke-opacity="0.1" stroke-width="3" stroke-miterlimit="10" stroke-linecap="round"/>
<path d="M835.88 141.571L781.128 123.144C777.146 121.805 774.886 117.083 776.074 112.597L787.009 71.3391C788.197 66.8526 792.388 64.306 796.37 65.6447L851.122 84.072C855.104 85.4106 857.364 90.1325 856.176 94.6191L845.242 135.877C844.049 140.358 839.858 142.91 835.88 141.571Z" stroke="#4D2C5E" stroke-opacity="0.1" stroke-width="4" stroke-miterlimit="10" stroke-linecap="round"/>
<path d="M777.364 107.718L846.532 130.998" stroke="#4D2C5E" stroke-opacity="0.1" stroke-width="4" stroke-miterlimit="10" stroke-linecap="round"/>
<path d="M812.118 126.119C811.821 127.238 810.772 127.876 809.778 127.541C808.785 127.207 808.219 126.025 808.516 124.906C808.813 123.787 809.862 123.149 810.855 123.484C811.848 123.818 812.415 125 812.118 126.119Z" fill="#4D2C5E" fill-opacity="0.5"/>
<path d="M816.264 134.975L800.757 129.757L798.667 137.638L814.175 142.857L816.264 134.975Z" stroke="#4D2C5E" stroke-opacity="0.1" stroke-width="4" stroke-miterlimit="10" stroke-linecap="round"/>
<path d="M792.917 136.154L819.687 145.164" stroke="#4D2C5E" stroke-opacity="0.1" stroke-width="4" stroke-miterlimit="10" stroke-linecap="round"/>
<path d="M1368.12 76.5511C1385.28 76.5511 1399.19 69.1205 1399.19 59.9543C1399.19 50.7882 1385.28 43.3575 1368.12 43.3575C1350.95 43.3575 1337.04 50.7882 1337.04 59.9543C1337.04 69.1205 1350.95 76.5511 1368.12 76.5511Z" stroke="#4D2C5E" stroke-opacity="0.1" stroke-width="3" stroke-miterlimit="10" stroke-linecap="round" stroke-linejoin="round"/>
<path d="M1380.68 68.6055C1389.61 52.0895 1391.21 34.8366 1384.26 30.0702C1377.31 25.3038 1364.45 34.8288 1355.52 51.3449C1346.6 67.861 1344.99 85.1138 1351.94 89.8802C1358.89 94.6466 1371.76 85.1216 1380.68 68.6055Z" stroke="#4D2C5E" stroke-opacity="0.1" stroke-width="3" stroke-miterlimit="10" stroke-linecap="round" stroke-linejoin="round"/>
<path d="M1384.26 89.8727C1391.21 85.1063 1389.6 67.8534 1380.68 51.3373C1371.75 34.8213 1358.89 25.2963 1351.94 30.0627C1344.99 34.8291 1346.59 52.0819 1355.52 68.598C1364.44 85.1141 1377.31 94.6391 1384.26 89.8727Z" stroke="#4D2C5E" stroke-opacity="0.1" stroke-width="3" stroke-miterlimit="10" stroke-linecap="round" stroke-linejoin="round"/>
<path d="M1368.12 64.3478C1370.27 64.3478 1372.02 62.3808 1372.02 59.9543C1372.02 57.5279 1370.27 55.5609 1368.12 55.5609C1365.96 55.5609 1364.22 57.5279 1364.22 59.9543C1364.22 62.3808 1365.96 64.3478 1368.12 64.3478Z" stroke="#4D2C5E" stroke-opacity="0.1" stroke-width="3" stroke-miterlimit="10" stroke-linecap="round" stroke-linejoin="round"/>
<path d="M1379.05 583.753L1353.39 590.427L1352.23 584.792C1351.97 583.486 1352.69 582.186 1353.85 581.881L1375.31 576.295C1376.47 575.997 1377.63 576.805 1377.9 578.111L1379.05 583.753Z" stroke="#4D2C5E" stroke-opacity="0.1" stroke-width="3" stroke-miterlimit="10" stroke-linecap="round"/>
<path d="M1370.62 553.447C1381.93 543.172 1383.7 524.512 1374.58 511.769C1365.46 499.025 1348.9 497.024 1337.59 507.299C1326.28 517.574 1324.5 536.234 1333.62 548.978C1342.74 561.721 1359.3 563.722 1370.62 553.447Z" stroke="#4D2C5E" stroke-opacity="0.1" stroke-width="3" stroke-miterlimit="10"/>
<path d="M1366.35 556.596L1341.81 504.159L1338.75 497.796C1322.75 507.294 1316.63 529.6 1325.06 547.62C1333.49 565.64 1353.28 572.544 1369.28 563.046L1366.28 556.639" stroke="#4D2C5E" stroke-opacity="0.1" stroke-width="3" stroke-miterlimit="10" stroke-linecap="round" stroke-linejoin="round"/>
<path d="M1347.22 515.649C1355.25 510.878 1360.56 504.43 1359.07 501.249C1357.58 498.067 1349.86 499.356 1341.83 504.127C1333.79 508.899 1328.49 515.346 1329.98 518.528C1331.47 521.709 1339.19 520.421 1347.22 515.649Z" stroke="#4D2C5E" stroke-opacity="0.1" stroke-width="3" stroke-miterlimit="10"/>
<path d="M1349.1 559.476C1354.77 560.707 1360.84 559.867 1366.35 556.596C1371.85 553.324 1375.9 548.161 1378.2 542.196C1372.53 540.964 1366.46 541.804 1360.96 545.076C1355.45 548.348 1351.41 553.51 1349.1 559.476Z" stroke="#4D2C5E" stroke-opacity="0.1" stroke-width="3" stroke-miterlimit="10"/>
<path d="M1366.37 556.563C1372.79 552.747 1372.51 537.914 1365.73 523.434C1358.95 508.954 1348.25 500.309 1341.83 504.126C1335.4 507.942 1335.69 522.775 1342.46 537.255C1349.24 551.735 1359.94 560.38 1366.37 556.563Z" stroke="#4D2C5E" stroke-opacity="0.1" stroke-width="3" stroke-miterlimit="10"/>
<path d="M1330.81 544.199L1377.35 516.556" stroke="#4D2C5E" stroke-opacity="0.1" stroke-width="3" stroke-miterlimit="10"/>
<path d="M1361.72 566.274L1364.44 579.038" stroke="#4D2C5E" stroke-opacity="0.1" stroke-width="3" stroke-miterlimit="10"/>
<path d="M1350.31 591.616L1383.02 582.777" stroke="#4D2C5E" stroke-opacity="0.1" stroke-width="3" stroke-miterlimit="10" stroke-linecap="round"/>
<path d="M1396.61 398.686L1410.3 383.261L1372.36 340.519L1358.67 355.944L1396.61 398.686Z" stroke="#4D2C5E" stroke-opacity="0.1" stroke-width="3" stroke-miterlimit="10" stroke-linecap="round" stroke-linejoin="round"/>
<path d="M1414 402.859L1410.29 383.258L1396.6 398.683L1414 402.859Z" stroke="#4D2C5E" stroke-opacity="0.1" stroke-width="3" stroke-miterlimit="10" stroke-linecap="round" stroke-linejoin="round"/>
<path d="M1412.27 393.713L1405.88 400.91" stroke="#4D2C5E" stroke-opacity="0.1" stroke-width="3" stroke-miterlimit="10" stroke-linecap="round" stroke-linejoin="round"/>
<path d="M1354.64 344.184L1361.92 335.982C1363.69 333.986 1366.56 333.986 1368.33 335.982L1372.35 340.518L1358.66 355.943L1354.64 351.408C1352.86 349.412 1352.86 346.173 1354.64 344.184Z" stroke="#4D2C5E" stroke-opacity="0.1" stroke-width="3" stroke-miterlimit="10" stroke-linecap="round" stroke-linejoin="round"/>
<path d="M1376.05 344.68L1362.36 360.112" stroke="#4D2C5E" stroke-opacity="0.1" stroke-width="3" stroke-miterlimit="10" stroke-linecap="round" stroke-linejoin="round"/>
<path d="M1403.45 390.97L1369.21 352.399" stroke="#4D2C5E" stroke-opacity="0.1" stroke-width="3" stroke-miterlimit="10" stroke-linecap="round" stroke-linejoin="round"/>
<path d="M326.398 585.147L323.878 591.619" stroke="#4D2C5E" stroke-opacity="0.1" stroke-width="4" stroke-miterlimit="10" stroke-linecap="round" stroke-linejoin="round"/>
<path d="M344.688 594.187L342.168 600.658" stroke="#4D2C5E" stroke-opacity="0.1" stroke-width="4" stroke-miterlimit="10" stroke-linecap="round" stroke-linejoin="round"/>
<path d="M362.983 603.222L360.463 609.693" stroke="#4D2C5E" stroke-opacity="0.1" stroke-width="4" stroke-miterlimit="10" stroke-linecap="round" stroke-linejoin="round"/>
<path d="M314.157 579.099L312.897 582.34" stroke="#4D2C5E" stroke-opacity="0.1" stroke-width="4" stroke-miterlimit="10" stroke-linecap="round" stroke-linejoin="round"/>
<path d="M320.277 582.128L319.018 585.359" stroke="#4D2C5E" stroke-opacity="0.1" stroke-width="4" stroke-miterlimit="10" stroke-linecap="round" stroke-linejoin="round"/>
<path d="M332.483 588.153L331.223 591.394" stroke="#4D2C5E" stroke-opacity="0.1" stroke-width="4" stroke-miterlimit="10" stroke-linecap="round" stroke-linejoin="round"/>
<path d="M338.599 591.176L337.344 594.412" stroke="#4D2C5E" stroke-opacity="0.1" stroke-width="4" stroke-miterlimit="10" stroke-linecap="round" stroke-linejoin="round"/>
<path d="M350.809 597.206L349.549 600.447" stroke="#4D2C5E" stroke-opacity="0.1" stroke-width="4" stroke-miterlimit="10" stroke-linecap="round" stroke-linejoin="round"/>
<path d="M369.4 606.393L368.145 609.629" stroke="#4D2C5E" stroke-opacity="0.1" stroke-width="4" stroke-miterlimit="10" stroke-linecap="round" stroke-linejoin="round"/>
<path d="M356.925 600.23L355.67 603.466" stroke="#4D2C5E" stroke-opacity="0.1" stroke-width="4" stroke-miterlimit="10" stroke-linecap="round" stroke-linejoin="round"/>
<path d="M359.026 658.137L298.631 571.433L377.59 610.436L359.026 658.137Z" stroke="#4D2C5E" stroke-opacity="0.1" stroke-width="4" stroke-miterlimit="10" stroke-linecap="round" stroke-linejoin="round"/>
<path d="M355.948 630.772L339.426 607.053L361.024 617.718L355.948 630.772Z" stroke="#4D2C5E" stroke-opacity="0.1" stroke-width="4" stroke-miterlimit="10" stroke-linecap="round" stroke-linejoin="round"/>
<path d="M506.583 21.6104L483.818 34.0115L529.192 139.742L551.957 127.341L506.583 21.6104Z" stroke="#4D2C5E" stroke-opacity="0.1" stroke-width="4" stroke-miterlimit="10" stroke-linecap="round" stroke-linejoin="round"/>
<path d="M512.015 34.298L500.638 40.4931" stroke="#4D2C5E" stroke-opacity="0.1" stroke-width="4" stroke-miterlimit="10" stroke-linecap="round" stroke-linejoin="round"/>
<path d="M522.53 58.7931L511.145 64.9971" stroke="#4D2C5E" stroke-opacity="0.1" stroke-width="4" stroke-miterlimit="10" stroke-linecap="round" stroke-linejoin="round"/>
<path d="M533.044 83.2882L521.659 89.4922" stroke="#4D2C5E" stroke-opacity="0.1" stroke-width="4" stroke-miterlimit="10" stroke-linecap="round" stroke-linejoin="round"/>
<path d="M543.551 107.792L532.174 113.987" stroke="#4D2C5E" stroke-opacity="0.1" stroke-width="4" stroke-miterlimit="10" stroke-linecap="round" stroke-linejoin="round"/>
<path d="M515.496 42.4095L509.808 45.5026" stroke="#4D2C5E" stroke-opacity="0.1" stroke-width="4" stroke-miterlimit="10" stroke-linecap="round" stroke-linejoin="round"/>
<path d="M519.009 50.6013L513.321 53.7033" stroke="#4D2C5E" stroke-opacity="0.1" stroke-width="4" stroke-miterlimit="10" stroke-linecap="round" stroke-linejoin="round"/>
<path d="M526.027 66.9492L520.338 70.0423" stroke="#4D2C5E" stroke-opacity="0.1" stroke-width="4" stroke-miterlimit="10" stroke-linecap="round" stroke-linejoin="round"/>
<path d="M529.539 75.141L523.851 78.243" stroke="#4D2C5E" stroke-opacity="0.1" stroke-width="4" stroke-miterlimit="10" stroke-linecap="round" stroke-linejoin="round"/>
<path d="M536.557 91.489L530.869 94.5821" stroke="#4D2C5E" stroke-opacity="0.1" stroke-width="4" stroke-miterlimit="10" stroke-linecap="round" stroke-linejoin="round"/>
<path d="M540.078 99.6808L534.381 102.783" stroke="#4D2C5E" stroke-opacity="0.1" stroke-width="4" stroke-miterlimit="10" stroke-linecap="round" stroke-linejoin="round"/>
<path d="M32.0648 557.002L7.35679 570.078C6.03554 570.783 4.46117 570.141 3.83615 568.652L2.25382 564.855C1.6288 563.366 2.19842 561.592 3.51966 560.888L28.2277 547.812C29.5489 547.107 31.1234 547.749 31.7484 549.238L33.3307 553.035C33.9558 554.533 33.386 556.306 32.0648 557.002Z" stroke="#4D2C5E" stroke-opacity="0.1" stroke-width="4" stroke-miterlimit="10" stroke-linecap="round"/>
<path d="M41.6617 586.703L29.5728 558.339L10.0151 568.919L22.1041 597.283L29.731 644.74C32.2389 650.632 38.5128 653.11 43.7345 650.285L64.8507 638.857C70.0803 636.032 72.2797 628.963 69.7717 623.08L41.6617 586.703Z" stroke="#4D2C5E" stroke-opacity="0.1" stroke-width="4" stroke-miterlimit="10" stroke-linecap="round"/>
<path d="M25.5376 618.685C25.5376 618.685 29.5726 611.323 40.3007 611.741C51.0289 612.16 52.8327 601.152 52.8327 601.152" stroke="#4D2C5E" stroke-opacity="0.1" stroke-width="4" stroke-miterlimit="10" stroke-linecap="round"/>
<path d="M66.4641 98.2336C75.8497 98.2336 83.4582 89.6612 83.4582 79.0867C83.4582 68.5122 75.8497 59.9398 66.4641 59.9398C57.0784 59.9398 49.4698 68.5122 49.4698 79.0867C49.4698 89.6612 57.0784 98.2336 66.4641 98.2336Z" stroke="#4D2C5E" stroke-opacity="0.1" stroke-width="4" stroke-miterlimit="10" stroke-linecap="round" stroke-linejoin="round"/>
<path d="M90.2859 117.149C94.0392 117.149 97.0819 113.721 97.0819 109.492C97.0819 105.263 94.0392 101.835 90.2859 101.835C86.5325 101.835 83.4897 105.263 83.4897 109.492C83.4897 113.721 86.5325 117.149 90.2859 117.149Z" stroke="#4D2C5E" stroke-opacity="0.1" stroke-width="4" stroke-miterlimit="10" stroke-linecap="round" stroke-linejoin="round"/>
</svg>
